<svg width="33" height="52" viewBox="0 0 33 52" fill="none" xmlns="http://www.w3.org/2000/svg">
  <path fill-rule="evenodd" clip-rule="evenodd" d="M30.4095 16.1413L30.3915 27.233C31.949 28.3583 32.9033 30.1859 32.8943 32.1576V34.0842C32.8853 36.9471 31.8679 39.675 30.0763 41.6917V45.6529C30.0763 47.0394 28.951 48.1648 27.5645 48.1648H26.3851V51.1987V51.3158C26.3851 51.6939 26.0791 52 25.7009 52H17.3282C16.9501 52 16.644 51.6939 16.644 51.3158V50.3975V48.1648H15.3656C13.9791 48.1648 12.8538 47.0394 12.8538 45.6529V41.8177C12.8538 41.6376 12.7997 41.5116 12.7547 41.4576C11.0982 39.4319 10.1889 36.8661 10.1889 34.2462V33.7961L9.18056 30.528C8.83845 29.3937 8.98249 28.1783 9.6127 27.1519C10.1529 26.2606 11.0532 25.6304 12.0525 25.3243L12.7637 25.1083C12.8808 25.0722 12.9888 25.0452 13.1058 25.0182C13.61 24.0909 14.4653 23.3707 15.5186 23.0466L16.3649 22.7855C17.1572 22.5424 17.9944 22.5424 18.7687 22.7765C19.0388 22.6145 19.3179 22.4884 19.624 22.3984L20.4792 22.1373C20.7583 22.0563 21.0284 22.0023 21.3075 21.9752L21.3165 16.1233C21.3165 13.8456 23.1711 12 25.4488 12H26.1511C27.1954 12 28.2307 12.3421 29.014 13.0443C29.9143 13.8366 30.4095 14.953 30.4095 16.1413ZM18.2465 50.3885H24.7826V48.1558H18.2465V50.3885ZM28.2488 40.9444C30.0313 39.2339 31.0577 36.749 31.0667 34.0662L31.0847 32.2206C31.0847 31.4913 30.9316 30.7531 30.5805 30.1139C30.1034 29.2496 29.3921 28.6284 28.5729 28.2593L28.5909 16.1233C28.5909 14.8539 27.5645 13.8186 26.2951 13.8186H25.4488C24.7376 13.8096 24.0624 14.1427 23.6122 14.7279C23.2881 15.142 23.1441 15.6732 23.1441 16.1954L23.1351 24.28C23.0271 24.199 22.901 24.1179 22.775 24.0459C22.2258 23.7578 21.6046 23.7038 21.0194 23.8839L20.1731 24.1449C19.714 24.289 19.3269 24.5681 19.0388 24.9372C18.9217 24.8472 18.8047 24.7661 18.6696 24.6941C18.1205 24.406 17.4993 24.352 16.9141 24.5321L16.0588 24.7932C15.1315 25.0813 14.5193 25.9005 14.4473 26.8098C14.0781 26.7288 13.691 26.7378 13.3129 26.8548L12.4576 27.1159C11.2422 27.485 10.567 28.7724 10.9361 29.9878L12.0165 33.526V34.2462C12.0075 36.4519 12.7727 38.5946 14.1682 40.2962C14.5013 40.6923 14.6813 41.2325 14.6813 41.8087V45.6439C14.6813 46.0221 14.9874 46.3282 15.3656 46.3282H27.5645C27.9427 46.3282 28.2488 46.0221 28.2488 45.6439V40.9444ZM24.4854 27.8992H26.8441C26.9038 27.8992 26.9635 27.9015 27.0219 27.9038L27.022 27.9038H27.022H27.0221C27.0782 27.906 27.1333 27.9082 27.1862 27.9082L27.2043 16.1234C27.2043 15.6102 26.7901 15.1961 26.277 15.1961H25.4307C25.1786 15.1961 24.9445 15.2951 24.7735 15.4661C24.6024 15.6462 24.5034 15.8713 24.5034 16.1234L24.4854 27.8992ZM21.7035 27.8992C21.2354 27.8992 20.8212 28.0702 20.4791 28.3403L20.4701 28.3133L19.9479 26.6298C19.8759 26.3957 19.9029 26.1436 20.011 25.9185C20.128 25.7025 20.3171 25.5404 20.5601 25.4684L21.4154 25.2073C21.6495 25.1353 21.9016 25.1623 22.1267 25.2703C22.3427 25.3874 22.5048 25.5764 22.5768 25.8195L23.117 27.5841V27.9082L21.7035 27.8992ZM19.4526 32.8057C19.6957 32.7337 19.8848 32.5717 20.0018 32.3556C20.1188 32.1395 20.1368 31.8874 20.0558 31.6444L18.4533 26.4497C18.3813 26.2066 18.2192 26.0175 18.0032 25.9005C17.8681 25.8285 17.7241 25.7925 17.571 25.7925C17.481 25.7925 17.391 25.8105 17.3009 25.8375L16.4456 26.0986C15.9595 26.2516 15.6804 26.7738 15.8334 27.2599L17.436 32.4546C17.589 32.9408 18.1112 33.2199 18.5973 33.0668L19.4526 32.8057ZM16.2568 36.4429L15.4015 36.704C15.1764 36.767 14.9514 36.803 14.7353 36.794C14.3842 36.794 14.0421 36.704 13.736 36.5599C14.0421 37.5953 14.5462 38.5676 15.2394 39.4139C15.7706 40.0621 16.0587 40.9084 16.0587 41.7997V44.9507H26.8982V42.0697C25.9619 42.727 25.2237 43.0601 25.1787 43.0781C25.0886 43.1231 24.9896 43.1411 24.8996 43.1411C24.6295 43.1411 24.3864 42.988 24.2694 42.736C24.1073 42.3848 24.2694 41.9797 24.6115 41.8267C24.6295 41.8267 25.8809 41.2595 27.1233 40.1521C28.7528 38.7026 29.6981 36.4789 29.7071 34.0661V32.1395C29.7071 31.3743 29.4101 30.654 28.8699 30.1139C28.3297 29.5647 27.6095 29.2676 26.8442 29.2676L21.6945 29.2586C21.3794 29.2586 21.1184 29.5197 21.1184 29.8348C21.1184 30.3119 21.2354 31.8514 22.7029 31.8514H24.8546C25.4938 31.8514 26.0069 32.3646 26.0069 33.0038V34.8494C26.0069 35.9387 25.1157 36.83 24.0263 36.83H23.4681C22.1627 36.83 21.1094 37.8924 21.1094 39.1888V39.4409C21.1094 39.819 20.8033 40.1251 20.4251 40.1251C20.047 40.1251 19.7409 39.819 19.7409 39.4409V39.1888C19.7409 37.1361 21.4155 35.4616 23.4681 35.4616H24.0263C24.3594 35.4616 24.6295 35.1915 24.6295 34.8584V33.2379H22.6939C22.1537 33.2379 21.6765 33.1118 21.2624 32.8778C21.0013 33.4539 20.5152 33.9311 19.8579 34.1292L19.0027 34.3902C18.7776 34.4533 18.5525 34.4893 18.3274 34.4893C18.1744 34.4893 18.0213 34.4623 17.8683 34.4353C17.7963 35.3446 17.1841 36.1548 16.2568 36.4429ZM12.8539 28.4213L13.7092 28.1602C14.1953 28.0071 14.7175 28.2862 14.8705 28.7724L16.4731 33.9671C16.6261 34.4532 16.347 34.9754 15.8609 35.1285L15.0056 35.3895C14.5194 35.5426 13.9973 35.2635 13.8442 34.7773L12.2507 29.5827C12.0886 29.0965 12.3677 28.5743 12.8539 28.4213Z" fill="#0C40FC"/>
  <path d="M6.98834 0.660606C7.36262 -0.220203 8.63738 -0.220202 9.01166 0.660607L10.4174 3.96885C10.5752 4.34018 10.932 4.59389 11.3415 4.62603L14.9903 4.91236C15.9618 4.98859 16.3557 6.17528 15.6156 6.79589L12.8356 9.12682C12.5235 9.38845 12.3873 9.79897 12.4826 10.1902L13.3319 13.6754C13.5581 14.6033 12.5268 15.3367 11.695 14.8394L8.57113 12.9718C8.22049 12.7622 7.77951 12.7622 7.42887 12.9718L4.30498 14.8394C3.47325 15.3367 2.44194 14.6033 2.66808 13.6754L3.51742 10.1902C3.61275 9.79897 3.47648 9.38845 3.16444 9.12682L0.384427 6.79588C-0.355742 6.17528 0.0381828 4.98859 1.00967 4.91236L4.65849 4.62603C5.06804 4.59389 5.4248 4.34018 5.58259 3.96885L6.98834 0.660606Z" fill="#F5DD00"/>
</svg>