<svg width="16" height="16" viewBox="0 0 16 16" fill="none" xmlns="http://www.w3.org/2000/svg">
  <path fill-rule="evenodd" clip-rule="evenodd" d="M8.00075 0C5.82806 0 5.55539 0.0095001 4.70205 0.0483338C3.85037 0.0873342 3.26903 0.222169 2.76036 0.420004C2.23419 0.62434 1.78785 0.897676 1.34318 1.34251C0.898176 1.78719 0.62484 2.23352 0.419838 2.75953C0.221502 3.26837 0.0865009 3.84987 0.0481672 4.70122C0.0100001 5.55456 0 5.82739 0 8.00008C0 10.1728 0.00966677 10.4446 0.0483338 11.2979C0.0875009 12.1496 0.222336 12.731 0.420004 13.2396C0.624506 13.7658 0.897843 14.2121 1.34268 14.6568C1.78719 15.1018 2.23352 15.3758 2.75936 15.5802C3.26837 15.778 3.84987 15.9128 4.70138 15.9518C5.55472 15.9907 5.82723 16.0002 7.99975 16.0002C10.1726 16.0002 10.4444 15.9907 11.2978 15.9518C12.1495 15.9128 12.7315 15.778 13.2405 15.5802C13.7665 15.3758 14.2121 15.1018 14.6567 14.6568C15.1017 14.2121 15.375 13.7658 15.58 13.2398C15.7767 12.731 15.9117 12.1495 15.9517 11.2981C15.99 10.4448 16 10.1728 16 8.00008C16 5.82739 15.99 5.55472 15.9517 4.70138C15.9117 3.84971 15.7767 3.26837 15.58 2.7597C15.375 2.23352 15.1017 1.78719 14.6567 1.34251C14.2116 0.897509 13.7666 0.624173 13.24 0.420004C12.73 0.222169 12.1483 0.0873342 11.2966 0.0483338C10.4433 0.0095001 10.1716 0 7.99825 0H8.00075ZM7.28323 1.44158C7.49623 1.44124 7.7339 1.44158 8.00091 1.44158C10.1369 1.44158 10.3901 1.44924 11.2336 1.48758C12.0136 1.52324 12.437 1.65358 12.719 1.76308C13.0923 1.90808 13.3585 2.08142 13.6383 2.36142C13.9183 2.64142 14.0916 2.90809 14.237 3.28143C14.3465 3.5631 14.477 3.98644 14.5125 4.76644C14.5508 5.60979 14.5591 5.86312 14.5591 7.99814C14.5591 10.1332 14.5508 10.3865 14.5125 11.2298C14.4768 12.0099 14.3465 12.4332 14.237 12.7149C14.092 13.0882 13.9183 13.354 13.6383 13.6339C13.3583 13.9139 13.0925 14.0872 12.719 14.2322C12.4373 14.3422 12.0136 14.4722 11.2336 14.5079C10.3903 14.5462 10.1369 14.5545 8.00091 14.5545C5.86472 14.5545 5.61155 14.5462 4.76821 14.5079C3.9882 14.4719 3.56486 14.3415 3.28269 14.232C2.90935 14.087 2.64268 13.9137 2.36268 13.6337C2.08268 13.3537 1.90934 13.0877 1.76401 12.7142C1.65451 12.4325 1.52401 12.0092 1.48851 11.2292C1.45017 10.3858 1.4425 10.1325 1.4425 7.99614C1.4425 5.85979 1.45017 5.60779 1.48851 4.76444C1.52417 3.98444 1.65451 3.5611 1.76401 3.27909C1.90901 2.90576 2.08268 2.63909 2.36268 2.35908C2.64268 2.07908 2.90935 1.90575 3.28269 1.76041C3.56469 1.65041 3.9882 1.52041 4.76821 1.48458C5.50621 1.45124 5.79222 1.44124 7.28323 1.43958V1.44158ZM12.2719 2.7698C11.7419 2.7698 11.3119 3.19931 11.3119 3.72948C11.3119 4.25949 11.7419 4.68949 12.2719 4.68949C12.8019 4.68949 13.2319 4.25949 13.2319 3.72948C13.2319 3.19947 12.8019 2.76947 12.2719 2.76947V2.7698ZM8.00083 3.89136C5.73198 3.89136 3.89246 5.73088 3.89246 7.99973C3.89246 10.2686 5.73198 12.1073 8.00083 12.1073C10.2697 12.1073 12.1085 10.2686 12.1085 7.99973C12.1085 5.73088 10.2695 3.89136 8.00067 3.89136H8.00083ZM8.00019 5.3335C9.47287 5.3335 10.6669 6.52734 10.6669 8.00019C10.6669 9.47287 9.47287 10.6669 8.00019 10.6669C6.52734 10.6669 5.3335 9.47287 5.3335 8.00019C5.3335 6.52734 6.52734 5.3335 8.00019 5.3335Z" fill="white"/>
</svg>