<svg width="15" height="15" viewBox="0 0 15 15" fill="none" xmlns="http://www.w3.org/2000/svg">
  <path d="M14.8055 13.3091L10.8362 9.33809C10.7559 9.25951 10.6606 9.20601 10.5536 9.17257C11.2274 8.22622 11.6287 7.06585 11.6287 5.81353C11.6271 2.6033 9.02376 0 5.8152 0C2.6033 0 0 2.6033 0 5.8152C0 9.02543 2.6033 11.6287 5.8152 11.6287C7.06752 11.6287 8.22622 11.2291 9.17591 10.5536C9.20768 10.659 9.26118 10.7559 9.33977 10.8362L13.3108 14.8055C13.6284 15.1215 14.2186 15.0446 14.6316 14.6316C15.0446 14.2186 15.1215 13.6268 14.8055 13.3091ZM5.8152 9.51365C3.77369 9.51365 2.11507 7.85671 2.11507 5.81353C2.11507 3.77202 3.77369 2.1134 5.8152 2.1134C7.85838 2.1134 9.51533 3.77202 9.51533 5.81353C9.51365 7.85671 7.85671 9.51365 5.8152 9.51365Z" fill="#0C40FC"/>
</svg>